<?xml version="1.0" standalone="no"?>
<!DOCTYPE svg PUBLIC "-//W3C//DTD SVG 20010904//EN"
 "http://www.w3.org/TR/2001/REC-SVG-20010904/DTD/svg10.dtd">
<svg version="1.0" xmlns="http://www.w3.org/2000/svg"
 width="512.000000pt" height="512.000000pt" viewBox="0 0 512.000000 512.000000"
 preserveAspectRatio="xMidYMid meet">
<metadata>
Created by potrace 1.11, written by Peter Selinger 2001-2013
</metadata>
<g transform="translate(0.000000,512.000000) scale(0.100000,-0.100000)"
fill="#000000" stroke="none">
<path d="M2427 5103 c-3 -5 -4 -71 -4 -148 l1 -140 -207 -3 c-155 -2 -207 -5
-208 -15 0 -6 -2 -40 -3 -74 l-1 -63 207 0 c191 0 208 -1 209 -17 1 -23 1
-428 0 -469 -1 -26 -14 -42 -78 -96 -43 -36 -90 -76 -104 -89 -14 -13 -47 -42
-73 -63 -26 -21 -55 -46 -64 -55 -14 -14 -163 -142 -252 -217 -14 -12 -48 -41
-75 -65 -28 -24 -77 -66 -110 -94 -32 -27 -65 -57 -74 -65 -9 -9 -47 -43 -86
-75 -38 -33 -75 -64 -81 -70 -6 -5 -22 -19 -35 -30 -90 -76 -680 -585 -704
-607 -16 -16 -62 -54 -102 -86 l-72 -57 0 -1241 -1 -1240 720 0 720 0 1 540
c1 588 1 588 25 661 75 236 364 380 644 321 183 -39 341 -170 385 -321 26 -86
28 -135 28 -676 l1 -525 725 0 726 1 3 1240 2 1241 -72 61 c-40 34 -86 74
-103 88 -16 14 -39 34 -50 43 -31 26 -228 195 -241 207 -6 5 -35 30 -64 54
-29 25 -58 50 -64 56 -6 6 -121 105 -256 220 -135 115 -247 212 -250 215 -3 3
-102 89 -220 190 -118 101 -220 189 -226 195 -6 5 -35 30 -65 55 -182 154
-295 255 -300 269 -3 9 -5 124 -5 256 l1 240 201 5 201 5 0 73 1 72 -202 0
-202 0 1 150 1 150 -72 0 c-40 0 -75 -3 -77 -7z"/>
</g>
</svg>
